<?xml version="1.0" encoding="UTF-8" ?>
<!DOCTYPE svg PUBLIC "-//W3C//DTD SVG 1.1//EN" "http://www.w3.org/Graphics/SVG/1.1/DTD/svg11.dtd">
<svg id="paradiziaLogo" width="250px" height="250px" viewBox="0 0 250 250" version="1.1" xmlns="http://www.w3.org/2000/svg">
<g id="#fefefefe">
<path fill="#fefefe" opacity="1.00" d=" M 154.88 35.00 C 155.32 33.25 155.89 31.54 156.54 29.86 C 178.66 35.99 197.80 51.34 208.97 71.36 C 184.10 86.55 158.96 101.34 133.83 116.10 C 140.76 89.05 147.90 62.04 154.88 35.00 M 157.18 31.55 C 150.16 58.93 143.12 86.32 135.78 113.61 C 159.50 99.29 183.40 85.25 207.21 71.06 C 196.44 52.08 178.19 37.53 157.18 31.55 Z" />
<path fill="#fefefe" opacity="1.00" d=" M 87.19 44.37 C 104.98 35.73 125.75 33.39 144.99 38.04 C 146.54 38.18 147.79 39.03 148.76 40.22 C 136.38 37.33 123.48 36.08 110.88 38.32 C 88.60 41.90 68.17 54.79 54.88 72.96 C 39.67 93.34 34.06 120.09 38.56 145.00 C 39.29 145.00 40.75 144.98 41.47 144.98 C 37.52 126.80 40.06 107.40 47.69 90.50 C 56.52 70.95 72.70 54.72 92.52 46.37 C 109.91 38.84 129.84 37.70 148.05 42.86 C 141.08 70.61 133.75 98.28 126.48 125.96 C 150.45 111.41 174.74 97.37 198.71 82.82 C 209.44 101.44 213.10 123.91 209.05 145.00 L 211.45 145.00 C 214.53 127.11 212.85 108.28 205.64 91.54 C 204.26 88.09 202.34 84.88 200.98 81.42 C 202.19 81.99 203.21 82.84 203.69 84.12 C 213.31 102.62 216.91 124.49 212.63 144.96 C 219.08 144.81 225.54 144.93 231.99 144.89 C 235.20 144.91 238.48 144.61 241.59 145.57 C 241.76 156.98 241.79 168.41 241.57 179.82 C 239.11 180.61 236.52 180.40 233.98 180.42 C 222.09 180.36 210.21 180.48 198.33 180.35 C 185.49 199.18 165.50 213.21 143.09 217.85 C 123.83 222.22 103.18 219.23 85.62 210.32 C 71.99 203.43 60.31 192.92 51.67 180.35 C 38.79 180.48 25.90 180.35 13.02 180.43 C 11.46 180.50 9.92 180.25 8.43 179.82 C 8.22 168.38 8.15 156.92 8.46 145.48 C 18.01 144.22 27.75 145.14 37.37 144.96 C 33.87 128.45 35.65 110.94 41.41 95.12 C 49.45 73.20 66.11 54.51 87.19 44.37 M 86.97 51.01 C 66.31 61.81 50.76 81.63 44.68 104.09 C 40.81 117.32 40.93 131.33 42.90 144.88 C 97.70 144.87 152.50 144.83 207.30 144.96 C 210.85 124.77 208.04 103.35 198.05 85.33 C 173.29 100.26 148.28 114.77 123.58 129.79 C 131.22 101.33 138.41 72.74 145.96 44.26 C 126.39 38.97 104.84 41.45 86.97 51.01 M 10.43 148.30 C 10.52 158.31 10.10 168.37 10.65 178.36 C 22.74 178.75 34.86 178.41 46.96 178.52 C 109.98 178.54 173.00 178.50 236.03 178.54 C 237.08 178.39 239.55 178.73 239.34 177.06 C 239.43 166.93 239.47 156.78 239.31 146.65 C 164.21 146.37 89.10 146.63 13.99 146.52 C 12.68 146.54 10.28 146.31 10.43 148.30 M 58.75 180.39 C 66.28 189.82 75.34 198.16 86.05 203.86 C 102.05 212.71 121.07 215.71 139.06 212.64 C 159.91 209.21 178.81 197.07 191.54 180.33 C 147.28 180.50 103.01 180.36 58.75 180.39 M 53.22 180.26 C 63.77 195.44 79.01 207.40 96.51 213.48 C 111.32 218.66 127.55 219.80 142.89 216.44 C 164.66 211.89 184.40 198.51 196.78 180.05 C 192.52 179.53 191.28 184.18 188.65 186.51 C 170.08 208.19 140.06 219.49 111.84 214.59 C 89.84 211.16 69.78 198.32 56.71 180.40 C 55.84 180.36 54.09 180.30 53.22 180.26 Z" />
<path fill="#fefefe" opacity="1.00" d=" M 170.36 58.42 C 172.24 58.12 173.52 60.69 171.75 61.75 C 169.34 63.00 168.22 59.48 170.36 58.42 Z" />
<path fill="#fefefe" opacity="1.00" d=" M 84.21 65.14 C 87.48 62.73 92.29 67.61 89.85 70.84 C 88.67 73.16 85.06 73.63 83.37 71.64 C 81.43 69.91 81.91 66.35 84.21 65.14 Z" />
<path fill="#fefefe" opacity="1.00" d=" M 119.44 66.64 C 122.81 63.86 126.94 67.37 127.46 70.96 C 126.33 73.06 124.76 75.65 122.00 75.42 C 117.66 75.35 115.53 68.97 119.44 66.64 Z" />
<path fill="#fefefe" opacity="1.00" d=" M 154.33 71.80 C 152.48 70.08 154.92 68.25 156.57 67.76 C 157.08 68.38 158.11 69.60 158.62 70.21 C 157.95 71.99 155.84 73.96 154.33 71.80 Z" />
<path fill="#fefefe" opacity="1.00" d=" M 181.09 69.15 C 184.65 67.26 189.09 72.29 186.74 75.61 C 185.36 78.53 180.75 78.78 179.00 76.10 C 177.13 73.82 178.41 70.13 181.09 69.15 Z" />
<path fill="#fefefe" opacity="1.00" d=" M 85.38 86.83 C 85.26 85.24 86.98 84.75 87.96 83.91 C 88.71 85.02 90.47 86.65 88.96 87.91 C 87.84 89.30 85.75 88.36 85.38 86.83 Z" />
<path fill="#fefefe" opacity="1.00" d=" M 155.18 88.95 C 156.14 88.47 157.92 86.43 158.59 88.29 C 159.91 89.38 158.05 90.54 157.27 91.14 C 156.54 90.43 155.85 89.70 155.18 88.95 Z" />
<path fill="#fefefe" opacity="1.00" d=" M 65.05 100.88 C 63.43 98.52 66.22 96.57 67.92 95.40 C 69.91 96.23 72.64 97.98 71.50 100.54 C 70.54 103.35 66.28 103.61 65.05 100.88 Z" />
<path fill="#fefefe" opacity="1.00" d=" M 95.51 105.68 C 98.18 103.33 102.71 105.70 102.83 109.06 C 103.44 112.44 99.16 115.65 96.18 113.72 C 92.95 112.38 92.51 107.54 95.51 105.68 Z" />
<path fill="#fefefe" opacity="1.00" d=" M 182.46 124.34 C 179.87 123.09 181.89 118.83 184.47 119.79 C 185.32 120.44 186.00 121.28 186.74 122.06 C 185.69 123.31 184.32 125.97 182.46 124.34 Z" />
<path fill="#fefefe" opacity="1.00" d=" M 150.36 133.54 C 153.32 132.09 157.24 134.69 156.88 138.02 C 157.13 142.03 151.34 144.33 148.84 141.10 C 146.38 138.92 147.52 134.79 150.36 133.54 Z" />
<path fill="#fefefe" opacity="1.00" d=" M 87.62 144.52 C 89.25 141.98 91.82 139.36 95.12 139.82 C 97.80 140.23 99.55 142.39 101.01 144.47 C 96.54 144.43 92.08 144.39 87.62 144.52 Z" />

<path fill="yellow" opacity="1.00" d=" M 17.03 149.44 C 22.52 149.71 28.04 149.18 33.51 149.73 C 38.61 150.57 40.71 157.56 37.18 161.19 C 34.46 164.25 30.00 163.89 26.29 163.85 C 26.33 167.17 26.15 170.51 26.65 173.81 C 27.62 174.16 29.54 174.88 30.50 175.23 C 26.18 175.58 21.82 175.07 17.50 175.55 C 17.49 175.40 17.48 175.09 17.47 174.94 C 18.58 174.16 20.77 173.97 20.49 172.16 C 20.58 165.79 20.57 159.41 20.49 153.04 C 20.76 150.97 18.18 150.59 17.03 149.44 M 26.45 150.70 C 26.24 154.62 26.28 158.55 26.37 162.47 C 31.06 163.49 34.67 158.17 32.70 154.07 C 31.91 151.38 28.74 151.14 26.45 150.70 Z" />
<path fill="yellow" opacity="1.00" d=" M 208.70 171.57 C 211.66 164.21 213.95 156.60 216.81 149.21 C 217.65 149.23 219.32 149.26 220.16 149.28 C 222.99 156.57 225.83 163.85 228.63 171.15 C 229.20 173.43 231.59 174.20 233.33 175.37 C 228.79 175.31 224.24 175.42 219.70 175.28 C 220.52 174.90 222.18 174.15 223.00 173.77 C 222.62 170.95 221.47 168.33 220.39 165.72 C 217.87 165.75 215.34 165.75 212.81 165.72 C 212.00 168.14 211.02 170.51 210.48 173.02 C 211.18 173.62 212.59 174.83 213.29 175.44 C 210.49 175.34 207.68 175.33 204.88 175.40 C 206.22 174.21 208.09 173.38 208.70 171.57 M 216.43 155.57 C 215.43 158.35 214.44 161.14 213.39 163.90 C 215.50 163.86 217.61 163.85 219.73 163.89 C 218.58 161.14 217.56 158.33 216.43 155.57 Z" />
<text fill="#fefefe" opacity="1.00" x="17" y="175" font-family="Times New Roman" font-size="36" font-weight="bold" textLength="215">PARADIZIA</text>

<path fill="#fefefe" opacity="1.00" d=" M 128.74 195.93 C 127.49 192.85 130.40 190.48 132.99 189.57 C 135.68 190.40 138.56 192.81 137.30 195.94 C 136.07 199.86 130.00 199.78 128.74 195.93 Z" />
</g>
</svg>
